<svg xmlns="http://www.w3.org/2000/svg" viewBox="0 0 128 128" role="img" aria-label="Obsidian Web Clipper CN icon">
	<defs>
		<linearGradient id="bg" x1="18" y1="10" x2="110" y2="122" gradientUnits="userSpaceOnUse">
			<stop offset="0" stop-color="#8b5cf6"/>
			<stop offset="0.52" stop-color="#5b4bdb"/>
			<stop offset="1" stop-color="#06b6d4"/>
		</linearGradient>
		<linearGradient id="card" x1="63" y1="52" x2="99" y2="94" gradientUnits="userSpaceOnUse">
			<stop offset="0" stop-color="#ffffff"/>
			<stop offset="1" stop-color="#dff9ff"/>
		</linearGradient>
		<filter id="shadow" x="-20%" y="-20%" width="140%" height="140%">
			<feDropShadow dx="0" dy="5" stdDeviation="5" flood-color="#1e1b4b" flood-opacity="0.22"/>
		</filter>
	</defs>
	<rect width="128" height="128" rx="28" fill="url(#bg)"/>
	<path d="M18 102 105 16c13 22 14 52 3 76-14 30-46 43-90 10Z" fill="#ffffff" opacity="0.12"/>
	<path d="M39 68V42c0-14 11-25 25-25s25 11 25 25v37c0 20-16 36-36 36S17 99 17 79V48"
		fill="none" stroke="#ffffff" stroke-width="11" stroke-linecap="round" stroke-linejoin="round" opacity="0.96"/>
	<path d="M61 46v30c0 9-7 16-16 16s-16-7-16-16V52"
		fill="none" stroke="#e0faff" stroke-width="8" stroke-linecap="round" stroke-linejoin="round" opacity="0.88"/>
	<g filter="url(#shadow)">
		<path d="M68 53h29l14 14v36a8 8 0 0 1-8 8H68a8 8 0 0 1-8-8V61a8 8 0 0 1 8-8Z" fill="url(#card)"/>
		<path d="M97 53v14h14" fill="none" stroke="#8fdff0" stroke-width="4" stroke-linecap="round" stroke-linejoin="round"/>
		<path d="M74 78h22M74 91h17" stroke="#5b4bdb" stroke-width="6" stroke-linecap="round"/>
	</g>
</svg>
